<?xml version="1.0" encoding="UTF-8" standalone="no"?>
<!DOCTYPE svg PUBLIC "-//W3C//DTD SVG 1.1//EN" "http://www.w3.org/Graphics/SVG/1.1/DTD/svg11.dtd">
<svg version="1.1" xmlns="http://www.w3.org/2000/svg" xmlns:xlink="http://www.w3.org/1999/xlink" preserveAspectRatio="xMidYMid meet" viewBox="197.9545454545455 49.453268192256296 244.59090909090907 284.00098824356223" width="1024" height="1182.08"><defs><path d="M439.55 190C439.55 255.98 385.98 309.55 320 309.55C254.02 309.55 200.45 255.98 200.45 190C200.45 124.02 254.02 70.45 320 70.45C385.98 70.45 439.55 124.02 439.55 190Z" id="c3j2JWs12"></path><path d="M317.78 131.5C316.91 132.19 309.93 137.76 309.06 138.45C295.73 150.3 286.14 159.87 280.54 166.9C270.33 179.68 264.74 192.66 263.9 205.49C262.95 219.95 267.08 233.68 276.16 246.3C285.79 259.75 297.95 267.05 312.31 267.98C315.59 268.2 319.2 268.16 322.2 267.97C322.08 266.96 321.19 258.88 321.08 257.87C318.99 258.06 316.77 258.09 314.45 257.94C305.02 257.32 296.6 253.43 289.4 246.37C281.88 239.04 278.51 230.96 279.12 221.69C280.27 204.11 291.68 186.7 313.03 169.92C313.98 169.16 321.61 163.09 322.56 162.33C330.95 155.16 337.75 146.15 342.77 135.52C347.74 124.97 350.65 113.55 351.44 101.58C351.9 94.55 350.92 85.81 348.56 75.63C345.32 61.8 340.71 54.88 334.44 54.46C332.2 54.33 329.76 55.45 326.78 58.08C319.53 64.62 314.27 72.55 311.11 81.61C308.67 88.53 307.05 97.79 306.31 109.12C305.99 113.84 306.62 122.55 308.11 133.07C308.99 132.25 316.06 125.7 316.95 124.88C316.92 123.7 316.95 122.47 317.04 121.18C317.51 113.96 319.33 106.13 322.44 97.9C326.39 87.61 330.12 84.5 332.56 83.71C333.23 83.49 333.88 83.41 334.58 83.45C337.76 83.66 340.93 85.01 340.39 93.42C339.93 100.56 337.1 108.12 331.99 115.9C327.88 122.17 323.11 127.4 317.78 131.5Z" id="f3geGQll1e"></path><path d="M354.38 251.85C359.44 245.29 362.28 237.54 362.85 228.81C363.56 218.1 360.99 208.39 355.23 199.94C348.91 190.68 340.26 185.63 329.5 184.92C328.27 184.84 326.96 184.84 325.61 184.94C325.46 183.8 324.69 178.07 323.31 167.76L313.65 174.87C314.53 182.18 315.03 186.25 315.13 187.06C309.34 189.45 304.31 193.22 300.12 198.31C295.3 204.23 292.62 210.74 292.16 217.68C291.69 224.88 293.3 231.48 296.94 237.25C298.83 240.33 301.44 243.06 304.43 245.3C309.34 248.95 314.99 248.68 315.89 246.69C316.79 244.71 313.43 241.6 310.8 237.45C309.3 235.1 308.56 232.28 308.56 228.96C308.56 221.91 312.81 215.85 318.87 213.17C319.25 216.11 321.14 230.84 324.54 257.35C325.33 263.51 325.77 266.92 325.86 267.61C326.73 272.48 327.58 277.33 328.4 282.12C329.4 288.6 329.75 294.22 329.44 298.82C329.02 305.19 327.03 310.4 323.52 314.31C321.29 316.79 318.68 318.36 315.73 319.23C319.69 315.27 322.14 309.8 322.14 303.76C322.14 291.69 312.36 281.9 300.29 281.9C296.93 281.9 293.8 282.71 290.96 284.06C290.6 284.21 290.26 284.45 289.91 284.63C289.13 285.06 288.35 285.48 287.62 285.99C287.38 286.18 287.14 286.4 286.89 286.6C282.01 290.41 278.81 296.21 278.52 302.82C278.52 302.83 278.51 302.84 278.51 302.85C278.51 302.85 278.51 302.86 278.51 302.86C278.5 303.17 278.42 303.45 278.42 303.76C278.42 304.02 278.49 304.25 278.5 304.5C278.49 311.58 281.43 317.67 287.33 322.61C292.91 327.27 299.6 329.88 307.21 330.38C311.54 330.66 315.71 330.16 319.61 328.89C322.8 327.85 325.88 326.28 328.76 324.21C335.71 319.19 339.5 312.63 340.02 304.69C340.42 298.63 340.12 291.46 339.09 283.29C338.9 282.06 337.95 275.92 336.25 264.87C331.96 233.15 329.57 215.53 329.1 212.01C337.08 213.54 343.12 220.54 343.12 228.96C343.12 234.95 341.18 244.39 337.57 249.33C337.72 250.27 338.47 254.99 339.82 263.49C346.89 259.18 351.75 255.29 354.38 251.85Z" id="eXtkRebSN"></path></defs><g><g><use xlink:href="#c3j2JWs12" opacity="1" fill="#ff66aa" fill-opacity="1"></use></g><g><use xlink:href="#f3geGQll1e" opacity="1" fill="#000000" fill-opacity="1"></use></g><g><use xlink:href="#eXtkRebSN" opacity="1" fill="#000000" fill-opacity="1"></use></g></g></svg>